<svg xmlns="http://www.w3.org/2000/svg" xmlns:xlink="http://www.w3.org/1999/xlink"
	viewBox="0 0 1000 1000" shape-rendering="geometricPrecision" text-rendering="geometricPrecision">
	<g transform="matrix(2.336221 0 0 2.336221-760.542127-503.823571)">
		<path
			d="M520.296656,218.350958c10.465175,18.311701,16.808541,66.815072-15.583477,90.958832-150.716122,92.100962-105.610655,353.446945,131.804624,296.476062-92.136225,95.347913-428.742714.843861-145.648825-329.338608c12.861737-15.877065,28.593657-32.565148,29.427678-58.096286Z"
			transform="translate(.000001 0)" fill="#00aed8" stroke-width="2" />
		<path
			d="M645.657382,338.791419c72.953687,110.61844,63.101042,188.983324,20.302763,239.782768c18.238148-46.006946,53.947045-89.901252-20.302763-239.782768Z"
			fill="#00aed8" stroke-width="2" />
		<path
			d="M546.599137,441.045253c3.838638-3.652429-6.453217-73.689691-33.014842-98.412831-37.04905-20.953312-80.769873,39.147785-66.196827,64.881042c5.620483,10.232078,65.663295,28.940419,99.211669,33.531789Z"
			transform="matrix(.995752-.092072 0.092072 0.995752-33.847518 59.689141)" fill="#00aed8"
			stroke="#00aed8" stroke-width="6" stroke-linejoin="round" />
		<path
			d="M564.857405,446.358064c1.976979,1.240312-6.416159-87.759672-30.174184-97.323806-36.671203-14.506908-72.810727,47.710766-63.952614,68.259283c11.279473,21.871603,49.935709,35.741712,94.126798,29.064523Z"
			transform="matrix(-.965565 0.260161 0.260161 0.965565 995.662677-130.689389)"
			fill="#00aed8" stroke="#00aed8" stroke-width="6" stroke-linejoin="round" />
		<path
			d="M562.218357,421.177405c.212753-8.826608-23.808294-96.944721-32.057313-99.553773-26.523398-13.262821-77.432022,47.726877-71.27115,61.339198c6.632184,18.284402,75.174199,35.884219,103.328463,38.214575Z"
			transform="matrix(.435702-.900091 0.900091 0.435702-78.1124 788.067575)" fill="#00aed8"
			stroke="#00aed8" stroke-width="6" stroke-linejoin="round" />
		<path
			d="M564.16228,437.951767c-5.65778-18.769416-32.91221-88.500747-44.318314-95.11274-27.908825-19.168893-71.285743,69.568984-58.836015,91.093941c16.950562,12.939599,76.748659,6.131193,103.154329,4.018799Z"
			transform="matrix(-.553643-.832754 0.832754-.553643 507.02063 1187.771208)"
			fill="#00aed8" stroke="#00aed8" stroke-width="6" stroke-linejoin="round" />
		<path
			d="M562.426691,431.148033c-17.721928-24.636182-42.861961-62.181002-63.47696-80.094281-29.796204-14.721824-49.484814,68.125352-32.518015,90.65725c14.923041,10.426451,72.334485-6.791843,95.994975-10.562969Z"
			transform="matrix(-.996796 0.079984-.079984-.996796 1166.227168 848.706544)"
			fill="#00aed8" stroke="#00aed8" stroke-width="6" stroke-linejoin="round" />
	</g>
</svg>